<svg width="374" height="43" viewBox="0 0 374 43" fill="none" xmlns="http://www.w3.org/2000/svg">
<g clip-path="url(#clip0_203_10584)">
<path d="M263.27 6.21997C265.595 7.23627 267.583 8.89438 269 11C270.35 13.0814 271.047 15.5193 271 18C271.05 20.481 270.353 22.9198 269 25C267.584 27.1181 265.593 28.7871 263.26 29.81C260.493 30.9587 257.526 31.55 254.53 31.55C251.534 31.55 248.567 30.9587 245.8 29.81C243.475 28.7825 241.491 27.1141 240.08 25C238.731 22.9178 238.035 20.4804 238.08 18C238.038 15.52 238.734 13.0834 240.08 11C241.493 8.88442 243.481 7.21585 245.81 6.18997C248.577 5.04126 251.544 4.44995 254.54 4.44995C257.536 4.44995 260.502 5.04126 263.27 6.18997V6.21997ZM246 23.49C247.535 25.0621 249.566 26.0549 251.75 26.3V9.71997C249.57 9.96279 247.54 10.9479 246 12.51C244.651 14.0139 243.934 15.9806 244 18C243.939 20.0185 244.655 21.9834 246 23.49ZM263.11 23.49C264.457 21.9808 265.173 20.0119 265.11 17.99C265.173 15.974 264.456 14.0114 263.11 12.51C261.57 10.9479 259.54 9.96279 257.36 9.71997V26.3C259.54 26.0527 261.567 25.0601 263.1 23.49H263.11ZM295.3 11V31.09H289.72V28.77C288.943 29.6606 287.972 30.3603 286.881 30.8147C285.79 31.269 284.609 31.4659 283.43 31.39C281.636 31.4162 279.865 30.9788 278.29 30.12C276.763 29.2817 275.509 28.0215 274.68 26.49C273.773 24.8051 273.321 22.9128 273.37 21C273.327 19.0973 273.778 17.216 274.68 15.54C275.509 14.0084 276.763 12.7482 278.29 11.91C279.865 11.0512 281.636 10.6137 283.43 10.64C284.546 10.5838 285.662 10.7722 286.698 11.1919C287.735 11.6116 288.667 12.2526 289.43 13.07V11H295.3ZM288.11 25.13C288.62 24.576 289.012 23.9244 289.263 23.2145C289.514 22.5047 289.618 21.7513 289.57 21C289.63 19.5262 289.105 18.0885 288.11 17C287.639 16.5042 287.068 16.1135 286.436 15.8533C285.803 15.5931 285.123 15.4693 284.44 15.49C283.752 15.4682 283.067 15.5914 282.429 15.8515C281.792 16.1117 281.216 16.5029 280.74 17C279.748 18.0908 279.224 19.5269 279.28 21C279.243 21.7396 279.353 22.4791 279.604 23.1759C279.854 23.8728 280.24 24.5131 280.74 25.06C281.216 25.5583 281.791 25.9511 282.428 26.213C283.066 26.4748 283.751 26.5998 284.44 26.58C285.122 26.6013 285.802 26.4788 286.434 26.2203C287.067 25.9619 287.637 25.5734 288.11 25.08V25.13ZM315.11 11.98C316.675 12.7975 317.962 14.0608 318.81 15.61C319.716 17.2987 320.167 19.1941 320.12 21.11C320.159 22.9869 319.737 24.8447 318.89 26.52C318.106 28.0417 316.897 29.3028 315.41 30.15C313.831 31.0305 312.047 31.4757 310.24 31.44C309.123 31.4989 308.006 31.3117 306.97 30.8919C305.933 30.472 305.001 29.8295 304.24 29.01V38.4H298.4V21.1C298.359 19.1857 298.836 17.2959 299.78 15.63C300.713 14.0703 302.073 12.8105 303.7 12C305.509 11.0903 307.515 10.6404 309.54 10.69C311.483 10.6344 313.411 11.0604 315.15 11.93L315.11 11.98ZM313 25.06C313.977 23.963 314.486 22.5275 314.42 21.06C314.488 19.5741 313.98 18.1192 313 17C312.516 16.5117 311.941 16.1241 311.306 15.8595C310.672 15.595 309.992 15.4588 309.305 15.4588C308.618 15.4588 307.937 15.595 307.303 15.8595C306.669 16.1241 306.093 16.5117 305.61 17C304.645 18.1039 304.141 19.5354 304.2 21C304.139 22.4613 304.636 23.891 305.59 25C306.056 25.5124 306.629 25.916 307.268 26.1822C307.908 26.4483 308.598 26.5705 309.29 26.54C309.978 26.5735 310.665 26.4586 311.306 26.2033C311.946 25.9479 312.523 25.558 313 25.06ZM342.95 31.06V19L336.95 29.1H334.48L328.56 19V31.09H323.29V11H329.39L335.82 22.64L342.67 11H348.21V31.09L342.95 31.06ZM373.26 11V31.09H367.69V28.77C366.913 29.66 365.941 30.3593 364.85 30.8136C363.76 31.2679 362.579 31.4651 361.4 31.39C359.602 31.4162 357.829 30.9788 356.25 30.12C354.727 29.2759 353.475 28.0172 352.64 26.49C351.739 24.8026 351.288 22.912 351.33 21C351.29 19.0977 351.741 17.2173 352.64 15.54C353.475 14.0128 354.727 12.7541 356.25 11.91C357.829 11.0512 359.602 10.6138 361.4 10.64C362.516 10.5838 363.632 10.7722 364.668 11.1919C365.705 11.6116 366.637 12.2526 367.4 13.07V11H373.26ZM366.08 25.13C366.588 24.5747 366.979 23.9229 367.229 23.2134C367.48 22.5038 367.586 21.7511 367.54 21C367.595 19.5269 367.071 18.0908 366.08 17C365.097 16.032 363.774 15.4894 362.395 15.4894C361.016 15.4894 359.692 16.032 358.71 17C357.714 18.0885 357.19 19.5262 357.25 21C357.211 21.7398 357.32 22.4799 357.571 23.1771C357.821 23.8742 358.209 24.5143 358.71 25.06C359.689 26.0328 361.014 26.5787 362.395 26.5787C363.775 26.5787 365.1 26.0328 366.08 25.06V25.13Z" fill="#D92819"/>
<path d="M67.6198 15.76H60.8098V31.1H54.9998V15.76H48.1998V11H67.6198V15.76ZM90.4298 22.68H75.1998C75.4314 23.8943 76.1274 24.9705 77.1398 25.68C78.2853 26.4235 79.6358 26.7874 80.9998 26.72C81.9501 26.7386 82.8958 26.5827 83.7898 26.26C84.6143 25.9124 85.3645 25.41 85.9998 24.78L89.1098 28.15C87.2098 30.3233 84.4398 31.4066 80.7998 31.4C78.7227 31.4379 76.6663 30.9821 74.7998 30.07C73.1446 29.2473 71.7574 27.971 70.7998 26.39C69.8113 24.7674 69.2984 22.8998 69.3198 21C69.2949 19.1261 69.7788 17.2806 70.7198 15.66C71.6449 14.1078 72.9806 12.8412 74.5798 12C76.2523 11.1363 78.1054 10.6807 79.9876 10.6702C81.8699 10.6598 83.7279 11.0949 85.4098 11.94C86.9871 12.7711 88.2923 14.0381 89.1698 15.59C90.1128 17.274 90.586 19.1805 90.5398 21.11C90.5398 21.18 90.4998 21.71 90.4298 22.68ZM76.7698 16.21C75.853 16.9892 75.2638 18.0855 75.1198 19.28H84.9998C84.8491 18.0932 84.2607 17.0055 83.3498 16.23C82.4302 15.458 81.2601 15.049 80.0598 15.08C78.8632 15.0507 77.6959 15.4517 76.7698 16.21ZM21.9298 11V31.1H16.3598V28.78C15.5827 29.67 14.6111 30.3693 13.5204 30.8236C12.4297 31.2779 11.249 31.4751 10.0698 31.4C8.27255 31.4262 6.49885 30.9888 4.91982 30.13C3.39526 29.2886 2.14279 28.0292 1.30982 26.5C0.404875 24.8108 -0.0464864 22.9157 -0.000182325 21C-0.0408376 19.0944 0.41034 17.2104 1.30982 15.53C2.14279 14.0008 3.39526 12.7414 4.91982 11.9C6.49885 11.0412 8.27255 10.6038 10.0698 10.63C11.1868 10.5711 12.3031 10.7582 13.3399 11.1781C14.3767 11.598 15.3086 12.2404 16.0698 13.06V11H21.9298ZM14.7498 25.1C15.2531 24.5477 15.6414 23.9007 15.892 23.1968C16.1427 22.4928 16.2507 21.7461 16.2098 21C16.2645 19.5271 15.7404 18.0913 14.7498 17C14.2776 16.5058 13.707 16.116 13.0749 15.8559C12.4427 15.5959 11.7631 15.4712 11.0798 15.49C10.3903 15.4687 9.70389 15.592 9.06491 15.8521C8.42592 16.1122 7.8485 16.5032 7.36982 17C6.37919 18.0913 5.85513 19.5271 5.90982 21C5.86892 21.7461 5.97696 22.4928 6.22762 23.1968C6.47828 23.9007 6.86656 24.5477 7.36982 25.1C7.8485 25.5968 8.42592 25.9878 9.06491 26.2479C9.70389 26.5079 10.3903 26.6313 11.0798 26.61C11.7631 26.6288 12.4427 26.5041 13.0749 26.244C13.707 25.9839 14.2776 25.5942 14.7498 25.1ZM45.0798 11V31.1H39.2398V15.76H30.8498V31.1H25.0498V11H45.0798ZM102.53 23.5H99.5298V31.1H93.6598V11H99.4998V18.82H102.64L108.11 11H114.32L107.32 20.65L114.84 31.13H107.95L102.53 23.5ZM136.36 11V31.1H130.78V28.78C130.003 29.6706 129.032 30.3703 127.941 30.8247C126.85 31.279 125.669 31.4759 124.49 31.4C122.696 31.4263 120.925 30.9888 119.35 30.13C117.823 29.2917 116.57 28.0315 115.74 26.5C114.831 24.8121 114.38 22.9161 114.43 21C114.385 19.0939 114.836 17.209 115.74 15.53C116.57 13.9984 117.823 12.7382 119.35 11.9C120.925 11.0412 122.696 10.6037 124.49 10.63C125.607 10.5738 126.722 10.7622 127.758 11.1819C128.795 11.6016 129.727 12.2426 130.49 13.06V11H136.36ZM129.17 25.1C129.675 24.5489 130.064 23.9021 130.315 23.1979C130.566 22.4937 130.673 21.7463 130.63 21C130.689 19.5264 130.164 18.0891 129.17 17C128.699 16.5042 128.128 16.1135 127.496 15.8533C126.864 15.5931 126.183 15.4693 125.5 15.49C124.812 15.4682 124.127 15.5914 123.489 15.8515C122.852 16.1117 122.276 16.5029 121.8 17C120.809 18.0913 120.285 19.5271 120.34 21C120.304 21.7395 120.415 22.4787 120.665 23.1754C120.916 23.8721 121.301 24.5125 121.8 25.06C122.276 25.557 122.852 25.9483 123.489 26.2084C124.127 26.4686 124.812 26.5918 125.5 26.57C126.18 26.5958 126.859 26.4783 127.491 26.225C128.123 25.9718 128.695 25.5885 129.17 25.1Z" fill="#00A5D8"/>
<path d="M186.67 20.8701C186.675 20.9267 186.675 20.9836 186.67 21.0401C186.67 20.9801 186.67 20.9301 186.67 20.8701Z" fill="#DD4A30"/>
<path d="M205.73 0H167.63C162.051 0 156.701 2.21618 152.756 6.16101C148.811 10.1058 146.595 15.4562 146.595 21.035C146.595 26.6138 148.811 31.9642 152.756 35.909C156.701 39.8538 162.051 42.07 167.63 42.07H205.73C211.309 42.07 216.659 39.8538 220.604 35.909C224.549 31.9642 226.765 26.6138 226.765 21.035C226.765 15.4562 224.549 10.1058 220.604 6.16101C216.659 2.21618 211.309 0 205.73 0ZM150.56 21C150.583 16.4865 152.392 12.1657 155.59 8.98073C158.788 5.79574 163.116 4.00522 167.63 4H193.45C188.947 7.25266 185.911 12.1509 185 17.63V17.69C184.815 18.7803 184.721 19.8841 184.72 20.99C184.715 21.0532 184.715 21.1168 184.72 21.18C184.696 25.7099 182.873 30.0448 179.653 33.231C176.433 36.4173 172.08 38.1939 167.55 38.17C163.02 38.1461 158.685 36.3237 155.499 33.1037C152.312 29.8837 150.536 25.5299 150.56 21ZM205.73 38.1H179.91C182.611 36.1621 184.814 33.6105 186.337 30.6551C187.86 27.6996 188.66 24.4248 188.67 21.1C188.665 21.0368 188.665 20.9732 188.67 20.91C188.699 17.5398 189.727 14.254 191.622 11.467C193.517 8.68005 196.195 6.51686 199.318 5.2504C202.442 3.98394 205.87 3.67095 209.171 4.35094C212.472 5.03092 215.498 6.6734 217.866 9.07114C220.235 11.4689 221.84 14.5144 222.479 17.8235C223.119 21.1326 222.764 24.5569 221.459 27.6644C220.154 30.7719 217.958 33.4233 215.148 35.2841C212.338 37.1449 209.04 38.1317 205.67 38.12L205.73 38.1Z" fill="white"/>
<path d="M205.73 0H167.63C162.051 0 156.701 2.21618 152.756 6.16101C148.811 10.1058 146.595 15.4562 146.595 21.035C146.595 26.6138 148.811 31.9642 152.756 35.909C156.701 39.8538 162.051 42.07 167.63 42.07H205.73C211.309 42.07 216.659 39.8538 220.604 35.909C224.549 31.9642 226.765 26.6138 226.765 21.035C226.765 15.4562 224.549 10.1058 220.604 6.16101C216.659 2.21618 211.309 0 205.73 0Z" fill="white"/>
<path d="M207.9 4.09997C205.509 3.80272 203.082 4.01372 200.779 4.71915C198.475 5.42457 196.347 6.60853 194.532 8.19352C192.718 9.77851 191.259 11.7288 190.25 13.9167C189.241 16.1047 188.706 18.4809 188.68 20.89C188.675 20.9532 188.675 21.0167 188.68 21.08C188.673 24.0558 188.034 26.9963 186.805 29.7064C185.575 32.4165 183.784 34.8345 181.55 36.8C181.435 36.899 181.354 37.0308 181.316 37.1777C181.279 37.3245 181.288 37.4792 181.341 37.621C181.394 37.7628 181.49 37.8847 181.615 37.9704C181.74 38.056 181.888 38.1013 182.04 38.1H205.74C210.077 38.097 214.25 36.4433 217.412 33.4747C220.574 30.5062 222.487 26.4454 222.763 22.1172C223.04 17.789 221.658 13.518 218.899 10.1715C216.14 6.82511 212.211 4.65428 207.91 4.09997H207.9Z" fill="#D92819"/>
<path d="M150.66 22.84C151.165 27.1335 153.281 31.0752 156.58 33.8684C159.88 36.6616 164.117 38.098 168.435 37.8871C172.753 37.6763 176.83 35.8341 179.841 32.7327C182.853 29.6314 184.575 25.5023 184.66 21.18C184.655 21.1167 184.655 21.0532 184.66 20.99C184.661 19.8841 184.755 18.7803 184.94 17.69V17.63C185.728 12.8451 188.144 8.4791 191.78 5.26997C191.894 5.1715 191.975 5.04058 192.012 4.89471C192.05 4.74884 192.042 4.59496 191.99 4.45364C191.938 4.31233 191.844 4.1903 191.72 4.10387C191.597 4.01744 191.45 3.97073 191.3 3.96997H167.63C165.237 3.97065 162.87 4.4745 160.685 5.44883C158.499 6.42316 156.542 7.84619 154.942 9.62557C153.342 11.405 152.134 13.5009 151.396 15.7775C150.658 18.054 150.407 20.4602 150.66 22.84Z" fill="#00A5D8"/>
<path d="M169.87 18.8001V15.0901C169.87 14.8885 169.79 14.6952 169.647 14.5527C169.505 14.4101 169.311 14.3301 169.11 14.3301H166.11C165.91 14.3327 165.719 14.4139 165.579 14.5562C165.438 14.6984 165.36 14.8902 165.36 15.0901V18.8001H161.64C161.44 18.8027 161.249 18.8839 161.109 19.0262C160.968 19.1684 160.89 19.3602 160.89 19.5601V22.5601C160.89 22.7599 160.968 22.9517 161.109 23.094C161.249 23.2362 161.44 23.3174 161.64 23.3201H165.36V27.0001C165.36 27.1999 165.438 27.3917 165.579 27.534C165.719 27.6762 165.91 27.7574 166.11 27.7601H169.11C169.311 27.7601 169.505 27.68 169.647 27.5375C169.79 27.395 169.87 27.2016 169.87 27.0001V23.2701H173.58C173.779 23.2674 173.97 23.1862 174.111 23.044C174.251 22.9017 174.33 22.7099 174.33 22.5101V19.5101C174.33 19.3102 174.251 19.1184 174.111 18.9762C173.97 18.8339 173.779 18.7527 173.58 18.7501L169.87 18.8001Z" fill="white"/>
<path d="M211.89 21.7L206.26 27.33C206.123 27.4551 205.945 27.5244 205.76 27.5244C205.575 27.5244 205.396 27.4551 205.26 27.33L199.63 21.7C198.86 20.9513 198.403 19.9392 198.349 18.867C198.295 17.7947 198.649 16.7419 199.34 15.92C200.051 15.1133 201.05 14.6167 202.122 14.5363C203.195 14.456 204.256 14.7982 205.08 15.49L205.26 15.67C205.396 15.7951 205.575 15.8644 205.76 15.8644C205.945 15.8644 206.123 15.7951 206.26 15.67L206.48 15.45C207.308 14.7734 208.366 14.4452 209.432 14.5348C210.498 14.6243 211.486 15.1246 212.19 15.93C212.876 16.7525 213.227 17.8039 213.171 18.8738C213.116 19.9437 212.658 20.9531 211.89 21.7Z" fill="white"/>
</g>
<defs>
<clipPath id="clip0_203_10584">
<rect width="373.26" height="42.07" fill="white"/>
</clipPath>
</defs>
</svg>
